# xmcd
#
# Track frame offsets:
#	150
#	4677
#	13557
#	25057
#	37145
#	45777
#	49037
#	53642
#	62642
#	75657
#	83312
#	87552
#	88852
#	96735
#	104897
#	113735
#	117007
#	122412
#	132250
#	141990
#	153940
#	163640
#	176422
#	187115
#	198125
#
# Disc length: 2821 seconds
#
# Revision: 0
# Processed by: cddbd v1.4PL0 Copyright (c) Steve Scherf et al.
# Submitted via: dBpowerAMP V4.0
#
DISCID=400b0319
DTITLE=Clooney, Rosemary - Memories Of You
DYEAR=1900
DGENRE=
TTITLE0=Intro (Anchors Away) (with The Buzz Adlam Orchestra - 1;00)
TTITLE1=From This Moment On (with The Buzz Adlam Orchestra)
TTITLE2=Looking For A Boy (with The Buzz Adlam Orchestra)
TTITLE3=Last Night On the Back Porch (with Buzz Adlam)
TTITLE4=I Wish I Wuz (Hi, Ho, Fiddle Dee Dee) (with The Buzz Adlam Orchestra)
TTITLE5=Outro (with The Buzz Adlam Orchestra - ;39)
TTITLE6=Intro (Anchors Away) (with The Buzz Adlam Orchestra - 1;01)
TTITLE7=If Teardrops Were Pennies (with The Buzz Adlam Orchestra)
TTITLE8=They Can't Take That Away From Me (with The Buzz Adlam Orchestra)
TTITLE9=Come On-A My House (with The Buzz Adlam Orchestra)
TTITLE10=Outro (with The Buzz Adlam Orchestra - ;53)
TTITLE11=Intro (This Is The Army, Mr. Jones) (with Orchestra)
TTITLE12=From This Moment On (with Orchestra)
TTITLE13=Mixed Emotions (with Orchestra)
TTITLE14='S Wonderful (with Orchestra)
TTITLE15=Outro (with Orchestra)
TTITLE16=Intro (I'm Getting Sentimental Over You) (with Tommy Dorsey Orchestra)
TTITLE17=Haven't Got A Worry (with Tommy Dorsey Orchestra)
TTITLE18=Opus #1 (with Tommy Dorsey)
TTITLE19=Mixed Emotions (with Tommy Dorsey Orchestra)
TTITLE20=Boogie Woogie (with Tommy Dorsey)
TTITLE21=What S=Would You Do (If You Were In My Place) (wtih Tommy Dorsey Orchestra)
TTITLE22=Dry Bones (with Tommy Dorsey)
TTITLE23=Lovely Weather For Ducks (with Tommy Dorsey Orchestra)
TTITLE24=Opus #2 and I'm Getting Sentimental Over You (with Tommy Dorsey)
EXTD=
EXTT0=
EXTT1=
EXTT2=
EXTT3=
EXTT4=
EXTT5=
EXTT6=
EXTT7=
EXTT8=
EXTT9=
EXTT10=
EXTT11=
EXTT12=
EXTT13=
EXTT14=
EXTT15=
EXTT16=
EXTT17=
EXTT18=
EXTT19=
EXTT20=
EXTT21=
EXTT22=
EXTT23=
EXTT24=
PLAYORDER=
